<?xml version="1.0" encoding="UTF-8"?>
<svg xmlns="http://www.w3.org/2000/svg" width="2100" height="2100" viewBox="0 0 2100 2100">
  <defs>
    <linearGradient id="goldMain" x1="0" y1="0" x2="0" y2="1">
      <stop offset="0%"   stop-color="#f5e6a0"/>
      <stop offset="25%"  stop-color="#c9a84c"/>
      <stop offset="50%"  stop-color="#8b6914"/>
      <stop offset="75%"  stop-color="#c9a84c"/>
      <stop offset="100%" stop-color="#f5e6a0"/>
    </linearGradient>
    <linearGradient id="goldSheen" x1="0" y1="0" x2="1" y2="0">
      <stop offset="0%"   stop-color="#8b6914"/>
      <stop offset="20%"  stop-color="#dcb253"/>
      <stop offset="45%"  stop-color="#fff8dc"/>
      <stop offset="55%"  stop-color="#fff8dc"/>
      <stop offset="80%"  stop-color="#dcb253"/>
      <stop offset="100%" stop-color="#8b6914"/>
    </linearGradient>
  </defs>

  <!-- Forme principale dorée solide -->
  <path fill="url(#goldMain)"
    d="M 1048.160156 93.261719 L 1050 93.261719 C 1052.460938 135.359375 1055.53125 157.179688 1059.828125 159.03125 C 1074.890625 164.558594 1082.269531 173.78125 1082.269531 186.988281 L 1082.269531 192.53125 C 1082.269531 200.210938 1077.96875 208.511719 1068.75 217.730469 C 1069.980469 223.570312 1070.589844 227.871094 1070.589844 230.328125 L 1074.28125 230.328125 C 1093.328125 233.710938 1103.171875 242.621094 1103.171875 256.449219 L 1103.171875 265.371094 C 1097.640625 282.578125 1089.03125 291.488281 1077.050781 291.488281 C 1081.660156 320.988281 1089.339844 335.441406 1099.480469 335.441406 C 1111.46875 346.199219 1117.609375 358.179688 1117.609375 370.78125 C 1117.609375 389.839844 1105.941406 402.128906 1082.269531 407.660156 C 1092.109375 439.320312 1114.851562 466.359375 1150.808594 488.488281 C 1170.480469 499.558594 1198.140625 509.078125 1233.789062 517.378906 C 1275.589844 533.671875 1304.171875 557.949219 1319.230469 590.21875 C 1331.210938 619.730469 1337.050781 640.929688 1337.050781 653.53125 L 1348.121094 653.53125 C 1364.101562 655.070312 1372.398438 663.058594 1372.398438 676.890625 C 1371.171875 679.351562 1370.550781 680.578125 1370.550781 681.191406 L 1474.128906 681.191406 L 1474.128906 710.078125 L 1421.878906 710.078125 L 1421.878906 757.71875 C 1428.949219 757.71875 1433.25 762.640625 1434.480469 772.171875 C 1434.480469 778.308594 1429.558594 782.921875 1420.039062 786.609375 L 1420.039062 793.070312 L 1410.199219 793.070312 L 1410.199219 1423.109375 L 1426.488281 1423.109375 L 1426.488281 1437.554688 L 1438.171875 1437.554688 C 1446.46875 1437.554688 1450.769531 1442.472656 1450.769531 1451.996094 L 1445.238281 1460.910156 C 1452.308594 1460.910156 1456.921875 1463.0625 1458.761719 1467.367188 C 1458.761719 1473.511719 1456.921875 1476.585938 1453.230469 1477.199219 L 1400.980469 1477.199219 C 1412.660156 1491.644531 1422.488281 1502.09375 1430.789062 1508.855469 L 1463.371094 1508.855469 C 1476.589844 1508.855469 1484.269531 1518.074219 1486.730469 1536.824219 C 1486.730469 1555.265625 1474.128906 1564.484375 1448.929688 1564.484375 L 1340.738281 1564.484375 C 1338.28125 1565.097656 1337.050781 1566.328125 1337.050781 1568.171875 L 1337.050781 1572.78125 C 1337.050781 1627.796875 1312.160156 1672.667969 1262.371094 1706.78125 C 1230.710938 1720.613281 1206.738281 1728.296875 1190.449219 1729.523438 C 1138.210938 1750.425781 1104.398438 1778.699219 1088.71875 1814.042969 C 1098.25 1819.882812 1103.171875 1827.871094 1103.171875 1837.402344 L 1103.171875 1842.933594 C 1103.171875 1858.300781 1093.328125 1867.519531 1074.28125 1869.980469 C 1069.980469 1871.515625 1067.828125 1876.433594 1067.828125 1884.117188 C 1077.660156 1891.492188 1082.269531 1898.5625 1082.269531 1905.9375 L 1082.269531 1913.929688 C 1082.269531 1927.144531 1074.28125 1936.671875 1057.988281 1942.816406 L 1050 2006.742188 L 1048.160156 2006.742188 L 1048.160156 1998.753906 C 1048.160156 1959.722656 1043.550781 1940.050781 1034.628906 1940.050781 C 1027.558594 1940.050781 1021.421875 1930.523438 1016.5 1911.160156 C 1020.191406 1893.949219 1025.109375 1885.039062 1030.941406 1885.039062 C 1030.941406 1873.664062 1025.109375 1868.132812 1013.121094 1868.132812 C 1001.75 1860.757812 995.910156 1850.617188 995.910156 1837.402344 C 997.136719 1829.101562 1002.058594 1821.113281 1010.351562 1814.042969 L 1012.199219 1814.042969 C 995.292969 1778.699219 963.023438 1751.347656 914.769531 1731.984375 L 867.132812 1717.539062 C 834.863281 1707.398438 811.503906 1691.414062 797.0625 1669.902344 C 773.394531 1639.476562 761.71875 1604.132812 761.71875 1564.484375 L 654.761719 1564.484375 C 627.101562 1564.484375 613.273438 1556.800781 613.273438 1541.128906 L 613.273438 1534.980469 C 615.730469 1517.460938 624.027344 1508.855469 638.472656 1508.855469 L 662.753906 1508.855469 C 668.285156 1504.554688 677.199219 1494.105469 689.800781 1477.199219 L 646.464844 1477.199219 C 645.234375 1477.199219 644.007812 1475.664062 642.160156 1472.898438 L 642.160156 1471.054688 C 642.160156 1464.292969 646.15625 1460.910156 654.761719 1460.910156 C 651.6875 1457.53125 650.152344 1453.84375 650.152344 1450.15625 C 650.152344 1441.855469 654.453125 1437.554688 662.753906 1437.554688 L 672.589844 1437.554688 L 672.589844 1423.109375 L 687.953125 1423.109375 L 687.953125 793.070312 L 679.042969 793.070312 C 679.042969 785.691406 675.660156 782 669.207031 782 C 666.75 778.621094 665.519531 775.238281 665.519531 772.171875 L 665.519531 771.238281 C 666.75 762.328125 670.746094 757.71875 677.199219 757.71875 L 677.199219 710.078125 L 625.871094 710.078125 L 625.871094 681.191406 L 729.445312 681.191406 L 728.523438 678.738281 L 728.523438 674.128906 C 728.523438 662.140625 736.207031 655.070312 751.882812 653.53125 L 762.640625 653.53125 C 762.640625 617.269531 779.851562 581.621094 813.964844 546.269531 C 837.015625 527.53125 866.519531 514.621094 903.09375 507.550781 C 912.925781 507.550781 935.671875 495.871094 971.628906 472.511719 C 999.902344 445.46875 1015.578125 423.640625 1018.339844 407.660156 C 994.984375 402.75 983.308594 391.070312 983.308594 372.320312 L 983.308594 366.171875 C 983.308594 350.5 992.835938 338.820312 1012.199219 331.140625 C 1017.421875 322.53125 1020.191406 309.621094 1020.191406 292.410156 L 1020.191406 289.648438 C 1007.589844 289.648438 999.597656 280.121094 995.910156 260.761719 C 999.597656 240.46875 1009.738281 230.328125 1026.640625 230.328125 L 1029.410156 230.328125 C 1031.558594 222.339844 1032.789062 218.039062 1032.789062 217.730469 C 1022.03125 209.738281 1016.5 200.210938 1016.5 188.839844 C 1020.800781 168.859375 1029.410156 159.03125 1042.011719 159.03125 C 1046 121.839844 1048.160156 100.019531 1048.160156 93.261719 Z M 1048.160156 463.289062 C 1042.621094 487.261719 1010.050781 515.539062 950.113281 548.121094 C 947.65625 548.121094 946.425781 549.039062 946.425781 550.878906 L 946.425781 649.851562 L 1158.800781 649.851562 C 1157.570312 609.578125 1157.261719 579.160156 1157.261719 558.871094 L 1157.261719 549.039062 C 1101.328125 527.828125 1065.671875 499.859375 1050 465.140625 L 1050 463.289062 Z M 836.707031 649.851562 L 923.070312 649.851562 L 923.070312 552.421875 L 921.226562 552.421875 C 891.722656 552.421875 866.210938 574.550781 844.699219 618.191406 C 839.164062 638.171875 836.707031 648.621094 836.707031 649.851562 Z M 1180.621094 552.421875 L 1180.621094 649.851562 L 1268.828125 649.851562 C 1262.679688 622.191406 1252.539062 599.441406 1238.089844 581.308594 C 1218.421875 562.25 1199.058594 552.421875 1180.621094 552.421875 Z M 726.679688 715.621094 L 726.679688 748.808594 L 1365.941406 748.808594 L 1365.941406 715.621094 Z M 722.992188 817.351562 L 722.992188 850.539062 L 1364.101562 850.539062 L 1364.101562 817.351562 Z M 1273.128906 887.421875 C 1273.128906 895.410156 1271.28125 900.019531 1266.980469 901.859375 C 1265.75 903.710938 1265.140625 905.859375 1265.140625 908.320312 L 1265.140625 910.78125 C 1265.140625 912.621094 1266.980469 914.460938 1270.671875 916.308594 C 1270.671875 920.609375 1267.289062 923.070312 1260.53125 924.300781 C 1258.378906 927.371094 1257.148438 929.828125 1257.148438 931.671875 L 1262.371094 939.671875 L 1262.371094 941.511719 C 1257.148438 953.5 1244.238281 962.410156 1223.648438 968.558594 C 1197.210938 976.238281 1184 989.449219 1184 1008.199219 C 1183.078125 1008.199219 1182.460938 1011.578125 1182.460938 1018.039062 L 1182.460938 1342.277344 L 1367.789062 1342.277344 L 1367.789062 1054.921875 C 1367.789062 1009.429688 1361.949219 984.839844 1349.960938 981.160156 C 1349.960938 976.851562 1336.75 971.320312 1310.320312 963.949219 C 1294.03125 953.800781 1285.730469 945.511719 1285.730469 938.738281 C 1289.421875 937.511719 1291.261719 934.441406 1291.261719 928.910156 C 1291.261719 927.058594 1287.261719 923.679688 1279.578125 919.070312 L 1279.578125 916.308594 L 1285.109375 908.320312 C 1285.109375 905.859375 1281.730469 901.558594 1274.96875 895.71875 L 1274.96875 887.421875 Z M 1045.390625 889.261719 C 1045.390625 895.410156 1042.621094 900.019531 1037.398438 903.710938 C 1037.398438 904.320312 1036.78125 905.859375 1035.558594 908.320312 L 1041.089844 916.308594 L 1041.089844 919.070312 C 1033.101562 923.679688 1029.410156 927.058594 1029.410156 928.910156 C 1029.410156 932.601562 1030.941406 935.980469 1034.628906 939.671875 C 1029.71875 950.421875 1018.960938 959.640625 1002.359375 966.710938 C 981.15625 966.710938 965.789062 979.011719 956.261719 1003.589844 C 953.804688 1014.351562 952.574219 1031.558594 952.574219 1054.921875 L 952.574219 1342.277344 L 1138.210938 1342.277344 L 1138.210938 1018.039062 C 1138.210938 994.058594 1126.53125 978.078125 1103.171875 970.398438 C 1088.109375 970.398438 1073.050781 960.871094 1057.988281 941.511719 L 1057.988281 938.738281 L 1062.601562 930.75 C 1062.601562 928.289062 1058.910156 924.300781 1051.839844 919.070312 L 1051.839844 916.308594 L 1055.21875 910.78125 L 1055.21875 908.320312 C 1055.21875 903.398438 1052.769531 899.398438 1047.230469 896.640625 L 1047.230469 889.261719 Z M 817.652344 890.179688 C 817.652344 893.871094 814.269531 899.101562 807.816406 906.46875 L 807.816406 908.320312 L 812.121094 916.308594 L 812.121094 919.070312 C 805.050781 923.679688 801.363281 927.058594 801.363281 928.910156 C 801.363281 932.601562 802.898438 935.980469 805.972656 939.671875 C 800.441406 952.269531 789.378906 961.179688 772.78125 966.710938 C 756.492188 966.710938 742.046875 976.851562 729.445312 997.449219 C 726.371094 1008.199219 724.835938 1020.5 724.835938 1034.328125 L 724.835938 1342.277344 L 909.546875 1342.277344 L 909.546875 1021.71875 C 909.546875 998.371094 900.632812 982.078125 882.5 973.171875 C 855.453125 965.789062 837.9375 955.949219 830.253906 943.351562 C 830.253906 942.121094 829.636719 940.589844 828.410156 938.738281 C 830.253906 938.738281 831.789062 936.898438 833.019531 933.519531 L 833.019531 927.058594 C 825.644531 921.230469 822.261719 917.539062 822.261719 916.308594 C 824.105469 916.308594 825.335938 914.460938 826.566406 910.78125 L 826.566406 904.628906 C 821.339844 899.710938 818.574219 895.71875 818.574219 892.03125 L 818.574219 890.179688 Z M 722.992188 1375.472656 L 722.992188 1408.972656 L 1364.101562 1408.972656 L 1364.101562 1375.472656 Z M 726.679688 1480.886719 C 726.679688 1487.957031 722.378906 1491.644531 714.078125 1491.644531 C 718.382812 1496.5625 720.53125 1499.019531 720.53125 1499.636719 L 718.6875 1508.855469 C 723.914062 1507.011719 726.679688 1505.476562 726.679688 1504.246094 L 735.59375 1508.855469 C 735.59375 1500.25 737.746094 1494.71875 742.046875 1491.644531 C 733.132812 1491.644531 728.523438 1487.957031 728.523438 1480.886719 Z M 983.308594 1480.886719 C 983.308594 1487.957031 978.390625 1491.644531 968.863281 1491.644531 C 973.164062 1494.71875 975.316406 1500.25 975.316406 1508.855469 C 980.539062 1507.011719 983.308594 1505.476562 983.308594 1504.246094 L 992.21875 1508.855469 L 992.21875 1506.089844 L 991.296875 1498.101562 C 992.527344 1498.101562 994.679688 1495.949219 997.753906 1491.644531 C 989.453125 1491.644531 985.152344 1487.957031 985.152344 1480.886719 Z M 1047.230469 1480.886719 C 1047.230469 1487.957031 1042.929688 1491.644531 1034.628906 1491.644531 C 1037.710938 1497.175781 1039.859375 1499.636719 1041.089844 1499.636719 L 1039.238281 1502.402344 L 1039.238281 1508.855469 C 1044.46875 1507.011719 1047.230469 1505.476562 1047.230469 1504.246094 L 1056.148438 1508.855469 L 1056.148438 1502.402344 C 1056.148438 1501.785156 1055.839844 1501.480469 1055.21875 1501.480469 L 1062.601562 1491.644531 C 1053.070312 1491.644531 1048.160156 1487.957031 1048.160156 1480.886719 Z M 1111.160156 1480.886719 C 1111.160156 1487.957031 1106.550781 1491.644531 1097.640625 1491.644531 L 1104.089844 1499.636719 L 1103.171875 1508.855469 C 1108.390625 1507.011719 1111.160156 1505.476562 1111.160156 1504.246094 L 1120.070312 1508.855469 C 1120.070312 1500.25 1122.21875 1494.71875 1126.53125 1491.644531 C 1117 1491.644531 1112.078125 1487.957031 1112.078125 1480.886719 Z M 1303.859375 1480.886719 C 1303.859375 1487.957031 1298.941406 1491.644531 1289.421875 1491.644531 C 1293.71875 1496.5625 1295.871094 1499.019531 1295.871094 1499.636719 L 1295.871094 1506.089844 L 1294.03125 1508.855469 L 1295.871094 1508.855469 C 1301.101562 1507.011719 1303.859375 1505.476562 1303.859375 1504.246094 L 1312.769531 1508.855469 L 1312.769531 1506.089844 L 1311.851562 1498.101562 C 1313.078125 1498.101562 1315.230469 1495.949219 1318.308594 1491.644531 C 1310.011719 1491.644531 1305.710938 1487.957031 1305.710938 1480.886719 Z M 1367.789062 1480.886719 C 1367.789062 1487.957031 1362.871094 1491.644531 1353.339844 1491.644531 C 1353.339844 1492.875 1356.109375 1495.640625 1361.640625 1499.636719 L 1359.800781 1502.402344 L 1359.800781 1508.855469 C 1365.019531 1507.011719 1367.789062 1505.476562 1367.789062 1504.246094 L 1376.699219 1508.855469 L 1376.699219 1502.402344 C 1376.699219 1501.785156 1376.089844 1501.480469 1375.160156 1501.480469 C 1375.160156 1500.25 1377.320312 1497.175781 1382.230469 1491.644531 C 1373.320312 1491.644531 1368.710938 1487.957031 1368.710938 1480.886719 Z M 790.605469 1481.8125 C 790.605469 1488.265625 785.996094 1491.644531 777.085938 1491.644531 C 781.386719 1495.949219 783.539062 1499.328125 783.539062 1501.480469 L 782.617188 1508.855469 C 787.839844 1507.011719 790.605469 1505.476562 790.605469 1504.246094 C 795.523438 1507.320312 798.90625 1508.855469 801.363281 1508.855469 L 799.519531 1506.089844 L 799.519531 1499.636719 L 805.972656 1491.644531 C 797.675781 1491.644531 793.371094 1488.265625 793.371094 1481.8125 Z M 853.609375 1481.8125 C 853.609375 1488.265625 849.613281 1491.644531 841.011719 1491.644531 C 845.3125 1496.5625 847.464844 1499.019531 847.464844 1499.636719 L 847.464844 1501.480469 L 846.542969 1508.855469 L 847.464844 1508.855469 L 855.453125 1504.246094 C 859.757812 1507.320312 862.832031 1508.855469 865.289062 1508.855469 L 865.289062 1507.933594 C 864.058594 1506.089844 863.445312 1503.9375 863.445312 1501.480469 L 863.445312 1499.636719 L 869.898438 1491.644531 C 861.601562 1491.644531 857.300781 1488.265625 857.300781 1481.8125 Z M 917.535156 1481.8125 C 917.535156 1488.265625 913.542969 1491.644531 904.9375 1491.644531 C 909.238281 1496.5625 911.390625 1499.019531 911.390625 1499.636719 L 911.390625 1506.089844 L 909.546875 1508.855469 L 911.390625 1508.855469 C 916.613281 1507.011719 919.382812 1505.476562 919.382812 1504.246094 L 929.214844 1508.855469 L 929.214844 1507.933594 L 927.371094 1498.101562 C 929.214844 1498.101562 931.367188 1495.949219 933.824219 1491.644531 C 925.527344 1491.644531 921.226562 1488.265625 921.226562 1481.8125 Z M 1174.160156 1481.8125 C 1174.160156 1488.265625 1170.171875 1491.644531 1161.558594 1491.644531 C 1165.871094 1495.949219 1168.019531 1499.328125 1168.019531 1501.480469 L 1166.171875 1508.855469 L 1168.019531 1508.855469 C 1172.011719 1507.011719 1174.160156 1505.476562 1174.160156 1504.246094 C 1179.699219 1507.320312 1183.378906 1508.855469 1185.839844 1508.855469 L 1185.839844 1507.933594 C 1184.609375 1506.089844 1184 1503.9375 1184 1501.480469 L 1184 1499.636719 C 1184 1499.019531 1186.148438 1496.5625 1190.449219 1491.644531 C 1182.160156 1491.644531 1177.851562 1488.265625 1177.851562 1481.8125 Z M 1238.089844 1481.8125 C 1238.089844 1488.265625 1234.101562 1491.644531 1225.488281 1491.644531 L 1231.941406 1499.636719 L 1231.941406 1501.480469 L 1230.101562 1508.855469 L 1231.941406 1508.855469 C 1237.171875 1507.011719 1239.941406 1505.476562 1239.941406 1504.246094 L 1247.929688 1508.855469 L 1249.769531 1508.855469 L 1247.929688 1498.101562 C 1249.769531 1498.101562 1251.921875 1495.949219 1254.378906 1491.644531 C 1246.078125 1491.644531 1241.78125 1488.265625 1241.78125 1481.8125 L 1238.089844 1481.8125 Z"/>

  <!-- Reflet sur les barres horizontales -->
  <path fill="url(#goldSheen)" fill-opacity="0.35"
    d="M 726.679688 715.621094 L 726.679688 748.808594 L 1365.941406 748.808594 L 1365.941406 715.621094 Z M 722.992188 817.351562 L 722.992188 850.539062 L 1364.101562 850.539062 L 1364.101562 817.351562 Z M 722.992188 1375.472656 L 722.992188 1408.972656 L 1364.101562 1408.972656 L 1364.101562 1375.472656 Z"/>
</svg>